<svg width="200" height="139" viewBox="0 0 200 139" fill="none" xmlns="http://www.w3.org/2000/svg">
<path d="M99.5718 125.8C133.63 125.8 161.382 98.2699 161.382 64.4571C161.267 30.53 133.63 3 99.5718 3C65.3985 3 37.7617 30.53 37.7617 64.3429C37.7617 98.2699 65.3985 125.8 99.5718 125.8Z" fill="#EAEEF9"/>
<g filter="url(#filter0_d_16040_664337)">
<path d="M165.512 72.2231C165.512 85.3598 154.847 95.9835 141.544 95.9835C141.315 95.9835 139.366 95.9835 125.031 95.9835C115.054 95.9835 99.1145 95.9835 73.6565 95.9835H61.5009C45.561 96.3262 32.832 83.6464 32.832 68.3392C32.832 52.9178 45.6757 40.1238 61.8449 40.9234C75.7207 -2.25647 139.251 3.79785 144.641 48.4628C156.567 49.9478 165.512 60.0002 165.512 72.2231Z" fill="url(#paint0_linear_16040_664337)"/>
</g>
<path d="M141.545 95.9817C154.733 95.9817 165.512 85.358 165.512 72.2213C165.512 59.0846 154.733 48.4609 141.545 48.4609C128.358 48.4609 117.578 59.0846 117.578 72.2213C117.578 85.358 128.358 95.9817 141.545 95.9817Z" fill="url(#paint1_linear_16040_664337)"/>
<path d="M102.441 96.2137C125.949 96.2137 145.1 77.2511 145.1 53.8334C145.1 30.4157 125.949 11.4531 102.441 11.4531C78.9321 11.4531 59.7812 30.4157 59.7812 53.8334C59.7812 77.2511 78.8174 96.2137 102.441 96.2137Z" fill="url(#paint2_linear_16040_664337)"/>
<path d="M86.6618 64.7041C88.4675 64.7041 89.9954 63.182 89.9954 61.3833C89.9954 59.5845 88.4675 58.0625 86.6618 58.0625C84.8561 58.0625 83.3281 59.5845 83.3281 61.3833C83.3281 63.182 84.8561 64.7041 86.6618 64.7041Z" fill="#989FB0"/>
<path d="M112.22 64.7041C114.026 64.7041 115.554 63.182 115.554 61.3833C115.554 59.5845 114.026 58.0625 112.22 58.0625C110.415 58.0625 108.887 59.5845 108.887 61.3833C108.887 63.3204 110.415 64.7041 112.22 64.7041Z" fill="#989FB0"/>
<path d="M86.5332 50.3991L79.1992 54.3438L80.1895 56.1706L87.5235 52.226L86.5332 50.3991Z" fill="#989FB0"/>
<path d="M111.767 50.3448L110.777 52.1719L118.112 56.1157L119.102 54.2886L111.767 50.3448Z" fill="#989FB0"/>
<path d="M99.4401 72.452C101.588 72.452 103.329 71.1511 103.329 69.5463C103.329 67.9415 101.588 66.6406 99.4401 66.6406C97.2921 66.6406 95.5508 67.9415 95.5508 69.5463C95.5508 71.1511 97.2921 72.452 99.4401 72.452Z" fill="#989FB0"/>
<path d="M19.593 19.3984C19.593 19.3984 3.56302 23.4527 8.42059 26.6961C13.2782 29.7773 24.7744 35.1289 35.623 31.5611C46.4715 27.9934 35.623 22.9662 35.7849 22.9662C35.9468 22.9662 19.593 19.3984 19.593 19.3984Z" fill="#CED7E2"/>
<path d="M0 18.1028C5.82908 19.8866 23.8021 16.9676 35.2983 9.50781C44.3658 20.6975 47.7661 23.6165 51.0045 23.9409C45.985 28.9681 29.3073 37.0766 19.916 26.5356C8.90554 33.5089 0 18.1028 0 18.1028Z" fill="#E9EDF9"/>
<path d="M149.156 58.6509C155.309 58.9752 171.987 51.5154 181.054 41.4609C192.712 50.0559 196.598 52.0019 199.999 51.5154C196.275 57.6779 184.94 71.1379 168.91 72.1109C157.252 65.2998 149.156 58.6509 149.156 58.6509Z" fill="#E9EDF9"/>
<path d="M100.041 134.718C98.8235 128.701 87.4165 114.47 75.3825 108.227C80.8348 94.8387 81.7588 90.605 80.4388 87.4458C87.3578 89.5035 103.267 97.0854 108.206 112.308C104.488 125.251 100.041 134.718 100.041 134.718Z" fill="white"/>
<defs>
<filter id="filter0_d_16040_664337" x="10.832" y="0.554688" width="176.68" height="128.438" filterUnits="userSpaceOnUse" color-interpolation-filters="sRGB">
<feFlood flood-opacity="0" result="BackgroundImageFix"/>
<feColorMatrix in="SourceAlpha" type="matrix" values="0 0 0 0 0 0 0 0 0 0 0 0 0 0 0 0 0 0 127 0" result="hardAlpha"/>
<feOffset dy="11"/>
<feGaussianBlur stdDeviation="11"/>
<feColorMatrix type="matrix" values="0 0 0 0 0.397708 0 0 0 0 0.47749 0 0 0 0 0.575 0 0 0 0.27 0"/>
<feBlend mode="normal" in2="BackgroundImageFix" result="effect1_dropShadow_16040_664337"/>
<feBlend mode="normal" in="SourceGraphic" in2="effect1_dropShadow_16040_664337" result="shape"/>
</filter>
<linearGradient id="paint0_linear_16040_664337" x1="99.1718" y1="46.4467" x2="99.1289" y2="96.9005" gradientUnits="userSpaceOnUse">
<stop stop-color="white"/>
<stop offset="0.9964" stop-color="#ECF0F5"/>
</linearGradient>
<linearGradient id="paint1_linear_16040_664337" x1="115.028" y1="43.3454" x2="136.185" y2="66.5747" gradientUnits="userSpaceOnUse">
<stop stop-color="#BCCBE1"/>
<stop offset="0.9942" stop-color="white" stop-opacity="0"/>
</linearGradient>
<linearGradient id="paint2_linear_16040_664337" x1="55.7866" y1="34.3862" x2="89.2388" y2="47.5279" gradientUnits="userSpaceOnUse">
<stop stop-color="#E2E8F0"/>
<stop offset="0.9942" stop-color="white" stop-opacity="0"/>
</linearGradient>
</defs>
</svg>
